#N canvas 293 260 1172 637 12;
#X obj 74 75 netreceive -u -b;
#X obj 74 100 oscparse;
#X msg 74 44 listen 8080;
#X obj 74 125 list trim;
#X obj 74 152 route state;
#X obj 74 177 route endEffector swatch;
#X obj 74 212 unpack f f;
#X obj 53 238 s speed;
#X obj 115 239 s force;
#X obj 196 213 route 0 1 2 3;
#X obj 183 239 s x0;
#X obj 218 265 s x1;
#X obj 262 266 s x3;
#X obj 230 240 s x2;
#X text 207 71 Receive OSC updates from processing;
#X text 267 167 Sort and store data for use in synthesis.;
#X obj 735 226 r a0;
#X obj 661 253 synth, f 11;
#X floatatom 661 127 5 0 0 0 - - - 0;
#X floatatom 679 153 5 0 0 0 - - - 0;
#X floatatom 698 177 5 0 0 0 - - - 0;
#X floatatom 716 203 5 0 0 0 - - - 0;
#X obj 59 582 dac~;
#X obj 854 73 r force;
#X obj 854 98 *;
#X obj 853 166 *;
#X obj 853 191 s a0;
#X obj 928 78 r x0;
#X obj 983 98 expr $f1 <= 1;
#X obj 915 48 hsl 170 20 0 0.5 0 0 empty empty Force\ scale -2 -10 0 12 #fcfcfc #000000 #000000 0 1;
#X floatatom 777 257 5 0 0 0 - - - 0;
#X floatatom 786 99 5 0 0 0 - - - 0;
#X floatatom 928 103 5 0 0 0 - - - 0;
#X obj 325 249 print miss;
#X obj 758 87 bng 20 250 50 0 empty empty empty 0 -10 0 12 #fcfcfc #000000 #000000;
#X obj 983 123 line 0 10;
#X obj 854 123 line 0 10;
#X obj 63 444 osc~ 440;
#X obj 483 310 r x0;
#X obj 483 360 s gate0;
#X obj 164 362 moses 1;
#X obj 162 426 vline~;
#X msg 209 396 1 10;
#X obj 127 490 *~;
#X obj 252 427 r force;
#X obj 63 469 *~;
#X obj 126 420 bng 20 250 50 0 empty empty empty 0 -10 0 12 #fcfcfc #000000 #000000;
#X obj 273 397 bng 20 250 50 0 empty empty empty 0 -10 0 12 #fcfcfc #000000 #000000;
#X floatatom 483 335 5 0 0 0 - - - 0;
#X floatatom 572 365 5 0 0 0 - - - 0;
#X obj 543 335 expr $f1 < 1;
#X obj 164 309 r gate0;
#X obj 164 334 change;
#X obj 270 456 r gate0;
#X obj 252 487 *;
#X obj 250 599 vline~;
#N canvas 0 50 450 250 (subpatch) 0;
#X array array0 96000 float 2;
#X coords 0 1 96000 -1 200 140 1;
#X restore 691 421 graph;
#X obj 250 519 / 5;
#X obj 88 592 tabwrite~ array0;
#X obj 134 559 bng 20 250 50 0 empty empty empty 0 -10 0 12 #fcfcfc #000000 #000000;
#X msg 161 394 0 250;
#X obj 250 544 expr min(1 \, $f1);
#X msg 250 571 \$1 50;
#X connect 0 0 1 0;
#X connect 1 0 3 0;
#X connect 2 0 0 0;
#X connect 3 0 4 0;
#X connect 4 0 5 0;
#X connect 5 0 6 0;
#X connect 5 1 9 0;
#X connect 6 0 7 0;
#X connect 6 1 8 0;
#X connect 9 0 10 0;
#X connect 9 1 11 0;
#X connect 9 2 13 0;
#X connect 9 3 12 0;
#X connect 9 4 33 0;
#X connect 16 0 30 0;
#X connect 16 0 17 4;
#X connect 18 0 17 0;
#X connect 19 0 17 1;
#X connect 20 0 17 2;
#X connect 21 0 17 3;
#X connect 23 0 24 0;
#X connect 23 0 31 0;
#X connect 24 0 36 0;
#X connect 25 0 26 0;
#X connect 27 0 28 0;
#X connect 27 0 32 0;
#X connect 28 0 35 0;
#X connect 29 0 24 1;
#X connect 34 0 18 0;
#X connect 34 0 19 0;
#X connect 34 0 20 0;
#X connect 34 0 21 0;
#X connect 35 0 25 1;
#X connect 36 0 25 0;
#X connect 37 0 45 0;
#X connect 38 0 48 0;
#X connect 38 0 50 0;
#X connect 40 0 60 0;
#X connect 40 1 42 0;
#X connect 41 0 43 0;
#X connect 42 0 41 0;
#X connect 42 0 47 0;
#X connect 43 0 45 1;
#X connect 43 0 58 0;
#X connect 44 0 54 0;
#X connect 45 0 22 0;
#X connect 45 0 22 1;
#X connect 50 0 39 0;
#X connect 50 0 49 0;
#X connect 51 0 52 0;
#X connect 52 0 40 0;
#X connect 53 0 54 1;
#X connect 54 0 57 0;
#X connect 55 0 43 1;
#X connect 57 0 61 0;
#X connect 59 0 58 0;
#X connect 60 0 41 0;
#X connect 60 0 46 0;
#X connect 61 0 62 0;
#X connect 62 0 55 0;
