#N canvas 2170 512 450 412 12;
#X obj 22 30 inlet;
#X obj 77 29 inlet;
#X text 20 10 f;
#X text 77 9 mix;
#X obj 22 117 phasor~;
#X obj 22 142 expr~ $v1 > 0.5;
#X obj 77 54 s \$0-mix;
#X obj 22 55 s \$0-f;
#X obj 157 27 inlet;
#X obj 157 52 s \$0-fc;
#X obj 225 29 inlet;
#X obj 225 54 s \$0-q;
#X obj 296 29 inlet;
#X obj 22 88 r \$0-f;
#X obj 155 143 r \$0-mix;
#X obj 155 168 expr 1 - $f1;
#X obj 21 194 *~;
#X obj 39 166 r \$0-mix;
#X obj 137 119 noise~;
#X obj 137 192 *~;
#X obj 21 219 +~;
#X obj 22 297 vcf~, f 11;
#X obj 59 246 r \$0-fc;
#X obj 96 269 r \$0-q;
#X obj 23 330 outlet~;
#X text 119 5 filter cutoff;
#X text 245 3 q;
#X text 296 5 gain;
#X obj 21 244 *~;
#X obj 54 220 r \$0-gain;
#X obj 296 54 line 0;
#X obj 296 79 s \$0-gain;
#X connect 0 0 7 0;
#X connect 1 0 6 0;
#X connect 4 0 5 0;
#X connect 5 0 16 0;
#X connect 8 0 9 0;
#X connect 10 0 11 0;
#X connect 12 0 30 0;
#X connect 13 0 4 0;
#X connect 14 0 15 0;
#X connect 15 0 19 1;
#X connect 16 0 20 0;
#X connect 17 0 16 1;
#X connect 18 0 19 0;
#X connect 19 0 20 1;
#X connect 20 0 28 0;
#X connect 21 0 24 0;
#X connect 22 0 21 1;
#X connect 23 0 21 2;
#X connect 28 0 21 0;
#X connect 29 0 28 1;
#X connect 30 0 31 0;
